<svg version="1.1" id="Layer_1" xmlns="http://www.w3.org/2000/svg" x="0" y="0" viewBox="0 0 201.8 65.3" xml:space="preserve"><style>.st0{fill:#2ba9e0}.st1{fill:#563e7c}</style><text transform="translate(-314.534 -157.664)"><tspan x="0" y="0" class="st0" font-family="Montserrat-ExtraBold" font-size="93.331">B</tspan><tspan x="71.8" y="0" class="st1" font-family="Montserrat-ExtraBold" font-size="93.331">B4</tspan></text><path class="st0" d="M62.2 47.4c0 11.3-9.3 17.9-26.9 17.9H0V0h33.4C50.6 0 59 7 59 17.1c0 6.3-3.2 11.3-8.8 14.2 7.4 2.6 12 8.2 12 16.1zM18.3 13.3v12.6H31c6.2 0 9.3-2.1 9.3-6.3 0-4.1-3.2-6.3-9.3-6.3H18.3zm25.2 32.1c0-4.5-3.4-6.6-9.7-6.6H18.3V52h15.5c6.3 0 9.7-2.2 9.7-6.6z"/><path class="st1" d="M133.9 47.4c0 11.3-9.3 17.9-26.9 17.9H71.8V0h33.4c17.2 0 25.6 7 25.6 17.1 0 6.3-3.2 11.3-8.8 14.2 7.4 2.6 11.9 8.2 11.9 16.1zM90.1 13.3v12.6h12.7c6.2 0 9.3-2.1 9.3-6.3 0-4.1-3.2-6.3-9.3-6.3H90.1zm25.2 32.1c0-4.5-3.4-6.6-9.7-6.6H90.1V52h15.5c6.3 0 9.7-2.2 9.7-6.6zM201.8 52.8h-9.7v12.5h-18V52.8h-34.5v-12L168.8 0H188l-26.6 38.2h13.3V27.1h17.5v11.1h9.7v14.6z"/></svg>