<?xml version="1.0" standalone="no"?>
<!DOCTYPE svg PUBLIC "-//W3C//DTD SVG 20010904//EN"
 "http://www.w3.org/TR/2001/REC-SVG-20010904/DTD/svg10.dtd">
<svg version="1.0" xmlns="http://www.w3.org/2000/svg"
 width="65.000000pt" height="70.000000pt" viewBox="0 0 65.000000 70.000000"
 preserveAspectRatio="xMidYMid meet">

<g transform="translate(0.000000,70.000000) scale(0.100000,-0.100000)"
fill="#000000" stroke="none">
<path d="M262 597 c-47 -48 -51 -55 -37 -67 14 -11 21 -8 55 25 l40 39 40 -39
c34 -33 41 -36 55 -25 14 12 10 19 -37 67 -29 29 -55 53 -58 53 -3 0 -29 -24
-58 -53z"/>
<path d="M224 489 c-3 -6 10 -28 30 -48 30 -30 38 -33 46 -21 7 11 1 24 -22
47 -34 36 -43 39 -54 22z m31 -9 c3 -5 1 -10 -4 -10 -6 0 -11 5 -11 10 0 6 2
10 4 10 3 0 8 -4 11 -10z m26 -37 c13 -16 12 -17 -3 -4 -17 13 -22 21 -14 21
2 0 10 -8 17 -17z"/>
<path d="M362 467 c-23 -23 -29 -36 -22 -47 8 -12 16 -9 46 21 20 20 33 42 30
48 -11 17 -20 14 -54 -22z m21 -10 c-15 -18 -29 -30 -31 -26 -4 8 40 59 51 59
5 0 -4 -15 -20 -33z"/>
<path d="M70 405 l-54 -55 54 -55 c48 -49 56 -53 69 -40 13 13 11 19 -24 55
l-39 40 39 40 c35 36 37 42 24 55 -13 13 -21 9 -69 -40z"/>
<path d="M500 445 c-11 -14 -8 -21 25 -55 l39 -40 -39 -40 c-35 -36 -37 -42
-24 -55 13 -13 21 -9 69 40 l55 55 -56 56 c-49 49 -57 54 -69 39z"/>
<path d="M174 439 c-3 -6 10 -27 30 -47 28 -29 38 -34 48 -24 9 9 5 20 -22 47
-36 38 -45 41 -56 24z m34 -34 c-3 -3 -9 2 -12 12 -6 14 -5 15 5 6 7 -7 10
-15 7 -18z"/>
<path d="M410 415 c-27 -27 -31 -38 -22 -47 10 -10 20 -5 48 24 20 20 33 41
30 47 -11 17 -20 14 -56 -24z m1 -38 c-10 -9 -11 -8 -5 6 3 10 9 15 12 12 3
-3 0 -11 -7 -18z"/>
<path d="M200 305 c-27 -28 -31 -38 -22 -47 10 -10 20 -5 48 23 29 29 33 38
21 47 -11 9 -21 4 -47 -23z"/>
<path d="M392 327 c-17 -20 52 -87 70 -69 10 10 5 20 -23 48 -29 29 -38 33
-47 21z"/>
<path d="M272 278 c-17 -17 -15 -33 3 -18 10 9 15 9 15 1 0 -11 -13 -15 -37
-12 -7 1 -17 -7 -23 -18 -19 -36 10 -35 47 1 28 29 32 37 20 46 -10 9 -16 9
-25 0z m-22 -58 c0 -5 -5 -10 -11 -10 -5 0 -7 5 -4 10 3 6 8 10 11 10 2 0 4
-4 4 -10z"/>
<path d="M342 277 c-9 -11 -4 -21 23 -47 49 -48 67 -27 22 24 -28 31 -36 35
-45 23z m53 -51 c15 -14 11 -13 -12 3 -18 12 -33 27 -33 34 0 6 5 5 13 -4 6
-8 21 -23 32 -33z"/>
<path d="M222 167 c-9 -10 1 -26 43 -67 l55 -54 55 54 c49 48 53 56 40 69 -13
13 -19 11 -55 -24 l-40 -39 -38 37 c-42 41 -45 42 -60 24z"/>
</g>
</svg>
